<svg width="160" height="160" viewBox="0 0 160 160" fill="none" xmlns="http://www.w3.org/2000/svg">
<path d="M35.6342 44.6375C34.8883 44.6375 34.1729 44.9338 33.6455 45.4612C33.118 45.9887 32.8217 46.704 32.8217 47.45V51.5417C32.8217 52.2876 33.118 53.003 33.6455 53.5304C34.1729 54.0579 34.8883 54.3542 35.6342 54.3542C36.3801 54.3542 37.0955 54.0579 37.623 53.5304C38.1504 53.003 38.4467 52.2876 38.4467 51.5417V47.45C38.4467 47.0806 38.374 46.7149 38.2326 46.3737C38.0913 46.0324 37.8841 45.7224 37.623 45.4612C37.3618 45.2001 37.0517 44.9929 36.7105 44.8515C36.3693 44.7102 36.0036 44.6375 35.6342 44.6375Z" fill="url(#paint0_linear_437_2850)"/>
<path d="M54.5754 54.3542C55.3214 54.3542 56.0367 54.0579 56.5642 53.5304C57.0916 53.003 57.3879 52.2876 57.3879 51.5417V47.45C57.3879 46.704 57.0916 45.9887 56.5642 45.4612C56.0367 44.9338 55.3214 44.6375 54.5754 44.6375C53.8295 44.6375 53.1141 44.9338 52.5867 45.4612C52.0593 45.9887 51.7629 46.704 51.7629 47.45V51.5417C51.7629 51.911 51.8357 52.2767 51.977 52.618C52.1184 52.9592 52.3255 53.2692 52.5867 53.5304C52.8479 53.7916 53.1579 53.9987 53.4991 54.1401C53.8404 54.2814 54.2061 54.3542 54.5754 54.3542Z" fill="url(#paint1_linear_437_2850)"/>
<path d="M152.225 83.7321V39.2852C152.227 35.2277 151.404 31.2122 149.804 27.4834C148.204 23.7546 145.862 20.3905 142.92 17.5961L144.725 3.71177C144.776 3.31527 144.742 2.91238 144.626 2.52998C144.509 2.14759 144.312 1.79446 144.048 1.49415C143.784 1.19384 143.459 0.95326 143.095 0.788441C142.731 0.623622 142.336 0.538356 141.936 0.53833H102.491C102.091 0.538356 101.696 0.623622 101.331 0.788441C100.967 0.95326 100.642 1.19384 100.378 1.49415C100.114 1.79446 99.9174 2.14759 99.8008 2.52998C99.6841 2.91238 99.6503 3.31527 99.7016 3.71177L101.511 17.6336C98.5817 20.4276 96.2503 23.7873 94.6582 27.5091C93.066 31.2308 92.2462 35.2372 92.2484 39.2852V83.6946C90.8943 84.7346 89.6797 85.9446 88.6344 87.2946C87.2832 84.2802 85.0898 81.7205 82.318 79.9234C79.5463 78.1263 76.3143 77.1683 73.0109 77.1649H57.3125V76.9961C60.1184 75.3267 62.5533 73.1012 64.4678 70.4564C66.3822 67.8116 67.7358 64.8034 68.4453 61.6165C70.5157 61.2962 72.44 60.3548 73.9635 58.9168C75.487 57.4787 76.5378 55.6119 76.9769 53.5634C77.416 51.5149 77.2226 49.3814 76.4223 47.4453C75.622 45.5092 74.2526 43.8618 72.4953 42.7211V33.4352C72.4953 26.1768 69.6119 19.2156 64.4794 14.0831C59.3469 8.95064 52.3858 6.06724 45.1273 6.06724C37.8689 6.06724 30.9078 8.95064 25.7753 14.0831C20.6428 19.2156 17.7594 26.1768 17.7594 33.4352V42.693C15.992 43.8265 14.6116 45.4712 13.8017 47.4083C12.9918 49.3454 12.7908 51.4832 13.2253 53.5373C13.6598 55.5914 14.7094 57.4646 16.2344 58.9078C17.7594 60.351 19.6875 61.2957 21.7625 61.6165C22.471 64.8007 23.8227 67.8067 25.7347 70.4498C27.6467 73.0929 30.0786 75.3174 32.8812 76.9868V77.1649H17.2016C12.6619 77.1705 8.30969 78.9763 5.09963 82.1864C1.88957 85.3965 0.083707 89.7486 0.078125 94.2883V122.301C0.078125 123.047 0.374443 123.762 0.901889 124.29C1.42933 124.817 2.1447 125.113 2.89062 125.113H53.3047C49.1108 142.439 62.3145 159.041 80 159.041C97.6855 159.041 110.891 142.445 106.695 125.113H157.109C157.855 125.113 158.571 124.817 159.098 124.29C159.626 123.762 159.922 123.047 159.922 122.301V99.379C159.922 96.3558 159.228 93.3729 157.894 90.6601C156.559 87.9473 154.62 85.5771 152.225 83.7321ZM69.0125 47.1977C69.7091 47.5541 70.3061 48.0781 70.7497 48.7226C71.1933 49.3671 71.4697 50.1119 71.5538 50.8898C71.638 51.6676 71.5273 52.4543 71.2318 53.1787C70.9363 53.9032 70.4652 54.5428 69.8609 55.0399C69.6011 55.2574 69.3163 55.4431 69.0125 55.593V47.1977ZM21.1953 55.593C20.8921 55.4419 20.6074 55.2563 20.3469 55.0399C19.7426 54.5424 19.2715 53.9024 18.9759 53.1775C18.6804 52.4527 18.5697 51.6658 18.6539 50.8875C18.738 50.1093 19.0143 49.3642 19.458 48.7193C19.9016 48.0744 20.4986 47.5499 21.1953 47.193V55.593ZM141.266 30.3133L141.955 24.9977C144.979 29.1473 146.605 34.1507 146.6 39.2852V80.6852C142.776 79.3572 140.372 79.6024 134.075 79.6024C137.468 77.5603 140.276 74.6758 142.226 71.2287C144.175 67.7817 145.201 63.8892 145.203 59.929C145.203 49.7824 145.272 49.4327 144.969 47.3008C144.906 46.8543 144.736 46.4295 144.474 46.0623C144.212 45.6952 143.866 45.3965 143.464 45.1915C142.152 44.5211 135.491 40.8415 133.062 34.1102C132.867 33.5665 132.507 33.0966 132.034 32.7649H138.477C139.16 32.7641 139.819 32.5151 140.332 32.064C140.846 31.613 141.177 30.9908 141.266 30.3133ZM122.23 77.2774C117.63 77.2726 113.22 75.4432 109.968 72.1908C106.715 68.9384 104.886 64.5286 104.881 59.929C104.881 49.7215 104.876 50.343 104.895 49.8508C108.973 49.0781 112.982 47.9825 116.886 46.5743C121.995 44.6993 126.228 42.4071 129.528 39.7352C132.505 44.7743 136.967 47.9336 139.541 49.4477C139.592 50.2586 139.578 49.6211 139.578 59.929C139.574 64.5287 137.744 68.9387 134.492 72.1912C131.239 75.4437 126.829 77.2729 122.23 77.2774ZM138.734 6.16333C136.561 22.9118 138.193 10.2996 136.006 27.1399H108.42C106.466 12.0813 108.057 24.355 105.692 6.16333H138.734ZM97.8734 39.2852C97.8668 34.1744 99.4782 29.1927 102.477 25.054L103.161 30.3133C103.249 30.9908 103.581 31.613 104.094 32.064C104.607 32.5151 105.267 32.7641 105.95 32.7649H128.803C127.965 33.3527 122.212 41.3074 101.844 44.6852C101.259 44.7818 100.721 45.0604 100.304 45.4813C99.8874 45.9021 99.6142 46.4438 99.5234 47.029C99.178 49.2729 99.2562 49.8518 99.2562 59.929C99.2584 63.8887 100.284 67.7806 102.232 71.2275C104.181 74.6744 106.988 77.5593 110.38 79.6024H104.281C102.101 79.6007 99.9359 79.9603 97.8734 80.6665V39.2852ZM112.808 86.8493L119.394 96.454V101.268L106.522 93.3696C111.5 88.2119 110.115 89.6482 112.808 86.8493ZM61.1703 82.7899L65.1687 90.9461H60.4297C59.9276 90.9474 59.435 91.0828 59.0028 91.3382C58.5705 91.5936 58.2144 91.9599 57.9711 92.3991C57.7279 92.8383 57.6063 93.3345 57.6191 93.8364C57.6319 94.3383 57.7785 94.8277 58.0438 95.254L61.2547 100.373L49.85 108.374C54.8919 89.5938 53.375 95.2455 56.7172 82.7899H61.1703ZM49.0578 89.6196C47.9295 90.4708 46.557 90.9359 45.1437 90.946C43.7303 90.9562 42.3513 90.5108 41.2109 89.6758L38.5062 79.6024V79.429C42.8128 80.6654 47.3801 80.667 51.6875 79.4336V79.8274L49.0578 89.6196ZM23.3844 33.4352C23.3844 27.6686 25.6751 22.1382 29.7527 18.0606C33.8303 13.983 39.3607 11.6922 45.1273 11.6922C50.8939 11.6922 56.4243 13.983 60.5019 18.0606C64.5795 22.1382 66.8703 27.6686 66.8703 33.4352V40.9399C64.8734 39.8477 58.6906 36.0461 56.3187 29.4743C56.1542 29.0191 55.875 28.614 55.508 28.2983C55.1411 27.9826 54.6989 27.767 54.2243 27.6722C53.7496 27.5775 53.2585 27.6068 52.7985 27.7575C52.3385 27.9081 51.9251 28.1749 51.5984 28.5321C42.8872 38.0435 24.0875 40.4777 23.3844 40.729V33.4352ZM26.8203 56.118C26.8203 45.8397 26.8133 46.316 26.8391 45.7961C40.3766 43.2508 48.3266 38.7274 52.7703 35.1133C55.8922 40.4758 60.6547 43.8274 63.3453 45.4071C63.4025 46.2438 63.3875 45.7207 63.3875 56.118C63.4349 58.7395 62.9168 61.3405 61.8685 63.7437C60.8201 66.1469 59.2662 68.296 57.3125 70.0446C45.8211 80.4161 26.8203 72.6569 26.8203 56.118ZM29.0844 82.7899H33.5375L36.2 92.7133L40.4047 108.374L29 100.373L32.2109 95.254C32.4768 94.8278 32.624 94.3383 32.637 93.8362C32.6501 93.334 32.5287 92.8376 32.2853 92.3981C32.0419 91.9587 31.6855 91.5924 31.2529 91.3371C30.8203 91.0818 30.3273 90.9468 29.825 90.9461H25.0859L29.0844 82.7899ZM42.3153 119.488H22.8486V107.946C22.8486 107.2 22.5523 106.485 22.0248 105.957C21.4974 105.43 20.782 105.133 20.0361 105.133C19.2902 105.133 18.5748 105.43 18.0474 105.957C17.5199 106.485 17.2236 107.2 17.2236 107.946V119.488H5.70312V94.2883C5.70586 91.2396 6.91817 88.3165 9.07395 86.1607C11.2297 84.0049 14.1528 82.7926 17.2016 82.7899H22.8219L18.05 92.5212C17.84 92.9497 17.7426 93.4245 17.7667 93.9011C17.7909 94.3777 17.9359 94.8402 18.1881 95.2453C18.4404 95.6504 18.7915 95.9846 19.2085 96.2165C19.6255 96.4485 20.0947 96.5705 20.5719 96.5711H24.7437L22.8172 99.6461C22.4343 100.257 22.3006 100.991 22.4436 101.698C22.5867 102.405 22.9956 103.029 23.5859 103.443L42.3153 116.587V119.488ZM45.1278 104.273L43.0091 96.3883C44.4095 96.6353 45.8426 96.6321 47.2419 96.379L45.1278 104.273ZM47.9403 119.488V116.587L66.6734 103.443C67.263 103.029 67.671 102.404 67.8131 101.697C67.9553 100.991 67.8208 100.256 67.4375 99.6461L65.5109 96.5711H69.6828C70.1604 96.5713 70.6301 96.4499 71.0478 96.2182C71.4654 95.9866 71.8172 95.6525 72.07 95.2473C72.3228 94.8421 72.4682 94.3792 72.4926 93.9023C72.517 93.4253 72.4195 92.95 72.2094 92.5212L67.4328 82.7899H73.0109C76.0589 82.7936 78.981 84.0064 81.1358 86.1621C83.2906 88.3178 84.5022 91.2403 84.5047 94.2883V104.488C78.6774 103.522 72.6937 104.459 67.441 107.161C62.1883 109.863 57.9462 114.186 55.3437 119.488H47.9403ZM80 153.416C62.7284 153.416 52.0991 134.053 61.8219 119.488C63.9122 116.345 66.7815 113.798 70.1498 112.095C73.5182 110.391 77.2706 109.59 81.0409 109.77C84.8112 109.949 88.4706 111.102 91.6621 113.118C94.8537 115.133 97.4683 117.941 99.2509 121.268C101.034 124.595 101.923 128.328 101.833 132.101C101.743 135.875 100.677 139.56 98.7374 142.799C96.7982 146.037 94.0527 148.718 90.7688 150.578C87.4848 152.439 83.7746 153.417 80 153.416ZM119.422 119.488H104.656C101.64 113.368 96.4654 108.581 90.1297 106.049V99.379C90.1367 96.7358 90.881 94.147 92.2788 91.9037C93.6766 89.6604 95.6726 87.8515 98.0422 86.6805C101.37 85.0329 103.96 85.2274 106.559 85.2274L100.044 91.9868C99.7522 92.2899 99.5322 92.6545 99.4 93.0537C99.2677 93.453 99.2266 93.8769 99.2797 94.2941C99.3327 94.7113 99.4786 95.1114 99.7065 95.4649C99.9345 95.8184 100.239 96.1163 100.597 96.3368L119.422 107.889V119.488ZM116.406 82.1524C120.217 83.1531 124.221 83.1531 128.031 82.1524L122.219 90.6274L116.406 82.1524ZM125.045 96.454L131.631 86.8493C134.3 89.6126 132.919 88.1796 137.917 93.3696L125.047 101.268L125.045 96.454ZM154.295 119.488H145.75V109.34C145.75 108.594 145.453 107.879 144.926 107.352C144.398 106.824 143.683 106.528 142.937 106.528C142.191 106.528 141.476 106.824 140.948 107.352C140.421 107.879 140.125 108.594 140.125 109.34V119.488H125.047V107.868L143.844 96.3368C144.203 96.1171 144.508 95.8195 144.737 95.466C144.965 95.1125 145.111 94.7122 145.165 94.2946C145.218 93.877 145.176 93.4528 145.043 93.0533C144.91 92.6539 144.69 92.2894 144.397 91.9868L137.881 85.2274C140.463 85.2274 143.065 85.0333 146.384 86.6805C148.488 87.7193 150.303 89.2619 151.667 91.1712C153.381 93.5645 154.301 96.4353 154.297 99.379L154.295 119.488Z" fill="url(#paint2_linear_437_2850)"/>
<path d="M113.179 48.5164C112.433 48.5164 111.717 48.8127 111.19 49.3401C110.662 49.8676 110.366 50.5829 110.366 51.3289V55.2392C110.366 55.9851 110.662 56.7005 111.19 57.2279C111.717 57.7554 112.433 58.0517 113.179 58.0517C113.925 58.0517 114.64 57.7554 115.167 57.2279C115.695 56.7005 115.991 55.9851 115.991 55.2392V51.3289C115.991 50.5829 115.695 49.8676 115.167 49.3401C114.64 48.8127 113.925 48.5164 113.179 48.5164Z" fill="url(#paint3_linear_437_2850)"/>
<path d="M131.281 48.5164C130.535 48.5164 129.82 48.8127 129.293 49.3401C128.765 49.8676 128.469 50.5829 128.469 51.3289V55.2392C128.469 55.9851 128.765 56.7005 129.293 57.2279C129.82 57.7554 130.535 58.0517 131.281 58.0517C132.027 58.0517 132.743 57.7554 133.27 57.2279C133.797 56.7005 134.094 55.9851 134.094 55.2392V51.3289C134.094 50.5829 133.797 49.8676 133.27 49.3401C132.743 48.8127 132.027 48.5164 131.281 48.5164Z" fill="url(#paint4_linear_437_2850)"/>
<path d="M116.091 19.0207H119.836V22.7665C119.836 22.9767 119.92 23.1783 120.068 23.327C120.217 23.4756 120.419 23.5591 120.629 23.5591H123.781C123.992 23.5591 124.193 23.4756 124.342 23.327C124.49 23.1783 124.574 22.9767 124.574 22.7665V19.0207H128.319C128.529 19.0207 128.731 18.9372 128.88 18.7885C129.028 18.6399 129.112 18.4383 129.112 18.228V15.0743C129.112 14.8641 129.028 14.6624 128.88 14.5138C128.731 14.3651 128.529 14.2816 128.319 14.2816H124.578V10.5363C124.578 10.3261 124.495 10.1245 124.346 9.97582C124.197 9.82717 123.996 9.74365 123.785 9.74365H120.631C120.421 9.74365 120.219 9.82717 120.071 9.97582C119.922 10.1245 119.839 10.3261 119.839 10.5363V14.2816H116.093C115.883 14.2816 115.681 14.3651 115.533 14.5138C115.384 14.6624 115.301 14.8641 115.301 15.0743V18.228C115.301 18.4378 115.384 18.6391 115.532 18.7877C115.68 18.9363 115.881 19.0201 116.091 19.0207Z" fill="url(#paint5_linear_437_2850)"/>
<path d="M80 112.825C74.1763 112.825 68.8273 115.684 66.2933 118.811L65.4073 118C65.3088 117.91 65.1871 117.849 65.056 117.824C64.9248 117.799 64.7892 117.811 64.6644 117.858C64.5395 117.906 64.4304 117.987 64.349 118.093C64.2676 118.199 64.2173 118.325 64.2036 118.458C63.7916 122.437 63.8919 121.469 63.4827 125.422C63.4711 125.534 63.4859 125.647 63.5259 125.752C63.566 125.858 63.6301 125.952 63.7132 126.028C63.7964 126.104 63.8961 126.16 64.0046 126.19C64.113 126.221 64.2271 126.225 64.3377 126.204L71.21 124.869C71.341 124.843 71.4624 124.782 71.5606 124.691C71.6588 124.601 71.73 124.485 71.7662 124.356C71.8024 124.228 71.8022 124.092 71.7656 123.963C71.7291 123.835 71.6576 123.719 71.5592 123.629L70.4192 122.586C79.6461 113.599 93.1278 120.457 93.1278 131.577C93.1278 132.323 93.4241 133.039 93.9516 133.566C94.479 134.094 95.1944 134.39 95.9403 134.39C96.6862 134.39 97.4016 134.094 97.929 133.566C98.4565 133.039 98.7528 132.323 98.7528 131.577C98.7472 126.606 96.7697 121.839 93.2541 118.323C89.7385 114.808 84.9718 112.83 80 112.825Z" fill="url(#paint6_linear_437_2850)"/>
<path d="M95.2184 137.627L87.995 139.03C87.8572 139.056 87.7296 139.121 87.6263 139.216C87.5231 139.311 87.4482 139.433 87.4102 139.568C87.3721 139.703 87.3723 139.846 87.4108 139.981C87.4492 140.116 87.5244 140.238 87.628 140.333L88.753 141.361C80.398 148.853 66.875 142.964 66.875 131.577C66.875 130.831 66.5787 130.116 66.0512 129.589C65.5238 129.061 64.8084 128.765 64.0625 128.765C63.3166 128.765 62.6012 129.061 62.0738 129.589C61.5463 130.116 61.25 130.831 61.25 131.577C61.25 148.065 81.0692 156.438 92.9155 145.171L94.0963 146.249C94.1999 146.344 94.3278 146.408 94.4657 146.435C94.6036 146.461 94.7461 146.448 94.8774 146.398C95.0086 146.349 95.1234 146.263 95.209 146.152C95.2945 146.04 95.3475 145.908 95.3619 145.768C95.7941 141.592 95.6966 142.533 96.1194 138.449C96.1317 138.331 96.1161 138.212 96.0739 138.101C96.0317 137.99 95.9641 137.89 95.8764 137.81C95.7888 137.73 95.6836 137.672 95.5693 137.64C95.455 137.608 95.3349 137.604 95.2184 137.627Z" fill="url(#paint7_linear_437_2850)"/>
<defs>
<linearGradient id="paint0_linear_437_2850" x1="38.4467" y1="54.3542" x2="30.0205" y2="49.4763" gradientUnits="userSpaceOnUse">
<stop stop-color="#0DB14B"/>
<stop offset="1" stop-color="#00C0F2"/>
</linearGradient>
<linearGradient id="paint1_linear_437_2850" x1="57.3879" y1="54.3542" x2="48.9618" y2="49.4763" gradientUnits="userSpaceOnUse">
<stop stop-color="#0DB14B"/>
<stop offset="1" stop-color="#00C0F2"/>
</linearGradient>
<linearGradient id="paint2_linear_437_2850" x1="159.922" y1="159.041" x2="1.42435" y2="-0.796606" gradientUnits="userSpaceOnUse">
<stop stop-color="#0DB14B"/>
<stop offset="1" stop-color="#00C0F2"/>
</linearGradient>
<linearGradient id="paint3_linear_437_2850" x1="115.991" y1="58.0517" x2="107.645" y2="53.1284" gradientUnits="userSpaceOnUse">
<stop stop-color="#0DB14B"/>
<stop offset="1" stop-color="#00C0F2"/>
</linearGradient>
<linearGradient id="paint4_linear_437_2850" x1="134.094" y1="58.0517" x2="125.748" y2="53.1284" gradientUnits="userSpaceOnUse">
<stop stop-color="#0DB14B"/>
<stop offset="1" stop-color="#00C0F2"/>
</linearGradient>
<linearGradient id="paint5_linear_437_2850" x1="129.112" y1="23.5591" x2="115.296" y2="9.74787" gradientUnits="userSpaceOnUse">
<stop stop-color="#0DB14B"/>
<stop offset="1" stop-color="#00C0F2"/>
</linearGradient>
<linearGradient id="paint6_linear_437_2850" x1="98.7528" y1="134.39" x2="79.5584" y2="102.994" gradientUnits="userSpaceOnUse">
<stop stop-color="#0DB14B"/>
<stop offset="1" stop-color="#00C0F2"/>
</linearGradient>
<linearGradient id="paint7_linear_437_2850" x1="96.1234" y1="150.332" x2="76.8272" y2="119.131" gradientUnits="userSpaceOnUse">
<stop stop-color="#0DB14B"/>
<stop offset="1" stop-color="#00C0F2"/>
</linearGradient>
</defs>
</svg>
